<?xml version="1.0" encoding="UTF-8" standalone="no"?>
<svg
   xmlns:dc="http://purl.org/dc/elements/1.1/"
   xmlns:cc="http://creativecommons.org/ns#"
   xmlns:rdf="http://www.w3.org/1999/02/22-rdf-syntax-ns#"
   xmlns:svg="http://www.w3.org/2000/svg"
   xmlns="http://www.w3.org/2000/svg"
   xmlns:sodipodi="http://sodipodi.sourceforge.net/DTD/sodipodi-0.dtd"
   xmlns:inkscape="http://www.inkscape.org/namespaces/inkscape"
   width="123.825mm"
   height="124.08958mm"
   viewBox="0 0 123.825 124.08958"
   version="1.1"
   id="svg1866"
   sodipodi:docname="VECTOR003.svg"
   inkscape:version="1.0.1 (3bc2e813f5, 2020-09-07)">
  <defs
     id="defs1860">
    <inkscape:path-effect
       effect="spiro"
       id="path-effect2728"
       is_visible="true"
       lpeversion="1" />
    <inkscape:path-effect
       effect="spiro"
       id="path-effect2720"
       is_visible="true"
       lpeversion="1" />
    <inkscape:path-effect
       effect="spiro"
       id="path-effect2716"
       is_visible="true"
       lpeversion="1" />
    <inkscape:path-effect
       effect="spiro"
       id="path-effect2712"
       is_visible="true"
       lpeversion="1" />
  </defs>
  <sodipodi:namedview
     id="base"
     pagecolor="#ffffff"
     bordercolor="#666666"
     borderopacity="1.0"
     inkscape:pageopacity="0.0"
     inkscape:pageshadow="2"
     inkscape:zoom="1"
     inkscape:cx="577.77002"
     inkscape:cy="295.86994"
     inkscape:document-units="mm"
     inkscape:current-layer="layer1"
     inkscape:document-rotation="0"
     showgrid="false"
     fit-margin-top="0"
     fit-margin-left="0"
     fit-margin-right="0"
     fit-margin-bottom="0"
     inkscape:window-width="1366"
     inkscape:window-height="745"
     inkscape:window-x="-8"
     inkscape:window-y="-8"
     inkscape:window-maximized="1" />
  <metadata
     id="metadata1863">
    <rdf:RDF>
      <cc:Work
         rdf:about="">
        <dc:format>image/svg+xml</dc:format>
        <dc:type
           rdf:resource="http://purl.org/dc/dcmitype/StillImage" />
        <dc:title></dc:title>
      </cc:Work>
    </rdf:RDF>
  </metadata>
  <g
     inkscape:label="Capa 1"
     inkscape:groupmode="layer"
     id="layer1"
     transform="translate(-25.022026,-60.419498)">
    <path
       style="fill:none;stroke:#000000;stroke-width:0.264583px;stroke-linecap:butt;stroke-linejoin:miter;stroke-opacity:1"
       d="m 71.620963,69.947162 c -15.944985,4.49611 -29.491285,16.7869 -35.512201,32.220828 -0.663906,1.70185 -1.241009,3.43744 -1.732303,5.1969 -2.687306,9.62396 -2.747795,19.96765 -0.17323,29.62238 h 37.417734 z"
       id="path2710"
       inkscape:path-effect="#path-effect2712"
       inkscape:original-d="m 71.620963,69.947162 c 0,0 -23.674536,21.480814 -35.512201,32.220828 -11.837665,10.74001 -1.154604,3.46487 -1.732303,5.1969 -0.577698,1.73204 -0.17323,29.62238 -0.17323,29.62238 0,0 37.417734,0 37.417734,0 0,0 0,-67.040108 0,-67.040108 z" />
    <path
       style="fill:#0105fe;stroke:#0000ff;stroke-width:0.264583px;stroke-linecap:butt;stroke-linejoin:miter;stroke-opacity:1;fill-opacity:1"
       d="m 79.069862,68.041629 c 11.492948,-1.505437 23.439208,0.66567 33.667518,6.118719 10.22832,5.453049 18.68922,14.161661 23.84492,24.543035 1.40885,2.836817 2.57711,5.794227 3.46461,8.834737 2.7895,9.5566 2.7285,19.92602 -0.17323,29.44915 H 79.243093 Z"
       id="path2714"
       inkscape:path-effect="#path-effect2716"
       inkscape:original-d="m 79.069862,68.041629 c 0,0 38.341888,20.441434 57.512438,30.661754 19.17056,10.220317 2.31001,5.890097 3.46461,8.834737 1.1546,2.94466 -0.17323,29.44915 -0.17323,29.44915 0,0 -60.630587,0 -60.630587,0 0,0 -0.173231,-68.945641 -0.173231,-68.945641 z" />
    <path
       style="fill:none;stroke:#000000;stroke-width:0.264583px;stroke-linecap:butt;stroke-linejoin:miter;stroke-opacity:1"
       d="m 36.455222,143.74325 c 4.080481,9.93293 11.155922,18.61274 20.062469,24.61165 8.906546,5.99891 19.609227,9.29338 30.347532,9.34148 2.140821,0.01 4.282169,-0.1065 6.40952,-0.34646 9.691117,-1.09315 19.073427,-4.81113 26.882747,-10.65299 7.80932,-5.84185 14.0254,-13.79243 17.81066,-22.78045 z"
       id="path2718"
       inkscape:path-effect="#path-effect2720"
       inkscape:original-d="m 36.455222,143.74325 c 0,0 33.606933,22.63568 50.410001,33.95313 16.803067,11.31744 4.273277,-0.23071 6.40952,-0.34646 2.136241,-0.11576 44.693407,-33.43344 44.693407,-33.43344 0,0 -101.512928,-0.17323 -101.512928,-0.17323 z" />
    <path
       style="fill:none;stroke:#000000;stroke-width:0.264583px;stroke-linecap:butt;stroke-linejoin:miter;stroke-opacity:1"
       d="m 87.211684,60.765958 c 12.10083,0.07883 24.153886,3.821856 34.170686,10.611559 10.01679,6.789703 17.95776,16.599261 22.51281,27.810317 4.55506,11.211056 5.70621,23.779316 3.26353,35.631306 -2.44267,11.85199 -8.46952,22.94088 -17.08624,31.43726 -8.61672,8.49637 -19.78927,14.36667 -31.674445,16.64242 -11.88517,2.27574 -24.436,0.94795 -35.581885,-3.76432 C 51.670254,174.42222 41.973348,166.34408 35.325192,156.23278 28.677036,146.12149 25.103894,134.01698 25.195256,121.91624 25.283897,110.17582 28.816413,98.481977 35.242611,88.656029 46.463355,71.499004 66.711665,60.63241 87.211684,60.765958 Z"
       id="path2726"
       inkscape:path-effect="#path-effect2728"
       inkscape:original-d="M 87.211684,60.765958 C 104.53444,51.469004 45.867664,101.53308 25.195256,121.91624 4.5228488,142.2994 31.893757,99.743029 35.242611,88.656029 38.591464,77.569028 69.888924,70.062913 87.211684,60.765958 Z" />
    <path
       style="opacity:1;fill:#ffffff;stroke-width:1.21792;stroke:#ffffff"
       d="M 210.76212,464.75283 C 169.14811,460.73906 127.15187,444.0244 92.296736,417.60316 82.577767,410.2359 62.681593,390.83821 53.977587,380.24408 17.186045,335.46308 -2.22417,273.9651 2.5398985,217.27249 11.392624,111.92467 84.550767,29.757769 189.73069,7.0308518 259.03251,-7.94365 338.60079,14.952801 391.38887,65.059712 c 32.07511,30.445981 53.93329,66.445518 65.13752,107.278898 6.21183,22.63879 8.21725,37.84858 8.22263,62.36351 0.007,33.21145 -5.55155,60.40828 -18.47911,90.40935 -11.8082,27.40341 -25.3863,47.73285 -46.44727,69.54196 -49.81169,51.58115 -118.19156,76.93486 -189.06052,70.0994 z M 257.8851,442.9151 c 37.5637,-4.30312 73.78816,-18.70625 103.57293,-41.18141 16.9432,-12.78509 37.10081,-34.54085 49.25092,-53.15564 7.92186,-12.13684 17.85055,-31.95627 16.6236,-33.18368 -0.96365,-0.964 -385.579676,-2.05218 -385.579676,-1.09089 0,1.80614 8.322824,18.58121 14.031199,28.28057 32.110322,54.56009 89.591457,91.97717 154.042367,100.27319 11.46313,1.47551 35.43152,1.50438 48.05866,0.0579 z M 176.94248,162.84458 c 0,-77.061701 -0.44544,-127.88206 -1.12088,-127.88206 -5.42784,0 -38.84347,14.720803 -51.56548,22.716476 C 99.432985,73.280111 73.765024,98.700521 58.274059,123.0247 30.422007,166.75848 20.099048,224.86045 30.827468,277.50571 c 1.319964,6.47718 2.399936,12.10164 2.399936,12.4988 0,0.39718 32.335892,0.72213 71.857536,0.72213 h 71.85754 z m 259.49264,122.73279 c 15.29346,-56.7956 5.30904,-116.02176 -27.8921,-165.45201 C 377.43825,73.816234 330.07085,42.176962 273.73439,30.07934 260.47329,27.231664 223.1927,25.399397 210.57898,26.975376 l -6.84216,0.854873 V 159.27845 290.72664 H 319.3927 435.04856 Z"
       id="path2730"
       transform="matrix(0.26458333,0,0,0.26458333,25.022026,60.419498)" />
    <path
       style="opacity:1;fill:#ff0000;stroke:#ff0000;stroke-width:0.329287"
       d="m 78.97166,177.25937 c -17.769935,-2.93735 -32.7383,-13.80936 -40.915486,-29.71827 -0.996327,-1.93838 -1.811504,-3.61701 -1.811504,-3.73029 0,-0.11328 22.957785,-0.20597 51.017299,-0.20597 h 51.017301 l -1.47527,2.97848 c -7.7064,15.55871 -21.80751,26.49514 -38.917397,30.18325 -4.334735,0.93437 -14.622133,1.20241 -18.914943,0.4928 z"
       id="path2732" />
    <path
       style="opacity:1;fill:#ff0000;stroke:#ff0000;stroke-width:0.330175"
       d="m 33.811418,136.93559 c -1.34689,-4.35173 -2.051719,-12.62056 -1.559741,-18.2984 1.367281,-15.77953 8.27156,-28.938549 20.514098,-39.098278 4.13261,-3.429534 10.791079,-7.146007 16.426248,-9.168429 l 2.393775,-0.85911 v 34.001017 34.001 H 52.788027 c -17.614397,0 -18.809032,-0.0364 -18.976609,-0.5778 z"
       id="path2734" />
  </g>
</svg>
